<?xml version="1.0" encoding="UTF-8"?>
<svg width="17px" height="17px" viewBox="0 0 17 17" version="1.1" xmlns="http://www.w3.org/2000/svg" xmlns:xlink="http://www.w3.org/1999/xlink">
    <title>Group 11</title>
    <g id="Page-1" stroke="none" stroke-width="1" fill="none" fill-rule="evenodd">
        <g id="Desktop-Copy" transform="translate(-49.000000, -2441.000000)" fill="#DAD9DE" fill-rule="nonzero">
            <g id="Footer" transform="translate(-1.000000, 2157.000000)">
                <g id="Group-11" transform="translate(50.000000, 284.000000)">
                    <path d="M8.20624,4.09912 C5.9348,4.09912 4.10264,5.93128 4.10264,8.20264 C4.10264,10.47408 5.9348,12.30624 8.20624,12.30624 C10.47768,12.30624 12.30984,10.47408 12.30984,8.20264 C12.30984,5.93128 10.47768,4.09912 8.20624,4.09912 Z M8.20624,10.87056 C6.7384,10.87056 5.5384,9.67408 5.5384,8.20264 C5.5384,6.73128 6.7348,5.5348 8.20624,5.5348 C9.67768,5.5348 10.87408,6.73128 10.87408,8.20264 C10.87408,9.67408 9.67408,10.87056 8.20624,10.87056 Z M13.4348,3.93128 C13.4348,4.46336 13.00624,4.8884 12.47768,4.8884 C11.94552,4.8884 11.52048,4.45984 11.52048,3.93128 C11.52048,3.40264 11.94912,2.97408 12.47768,2.97408 C13.00624,2.97408 13.4348,3.40264 13.4348,3.93128 Z M16.15264,4.90264 C16.09192,3.62056 15.79912,2.4848 14.85976,1.54912 C13.92408,0.613392 12.7884,0.320536 11.50624,0.256248 C10.1848,0.181248 6.22408,0.181248 4.90264,0.256248 C3.62408,0.316968 2.4884,0.609824 1.54912,1.54552 C0.609824,2.48128 0.320536,3.61696 0.256248,4.89912 C0.181248,6.22056 0.181248,10.18128 0.256248,11.50264 C0.316968,12.7848 0.609824,13.92056 1.54912,14.85624 C2.4884,15.792 3.62056,16.0848 4.90264,16.14912 C6.22408,16.22408 10.1848,16.22408 11.50624,16.14912 C12.7884,16.0884 13.92408,15.79552 14.85976,14.85624 C15.79552,13.92056 16.0884,12.7848 16.15264,11.50264 C16.22768,10.18128 16.22768,6.22408 16.15264,4.90264 Z M14.44552,12.92056 C14.16696,13.62056 13.62768,14.15984 12.92408,14.442 C11.87048,14.85984 9.37056,14.76336 8.20624,14.76336 C7.04192,14.76336 4.5384,14.85624 3.4884,14.442 C2.7884,14.16336 2.24912,13.62408 1.96696,12.92056 C1.54912,11.86696 1.64552,9.36696 1.64552,8.20264 C1.64552,7.0384 1.55264,4.5348 1.96696,3.4848 C2.24552,2.7848 2.7848,2.24552 3.4884,1.96336 C4.54192,1.54552 7.04192,1.642 8.20624,1.642 C9.37056,1.642 11.87408,1.54912 12.92408,1.96336 C13.62408,2.242 14.16336,2.78128 14.44552,3.4848 C14.86336,4.5384 14.76696,7.0384 14.76696,8.20264 C14.76696,9.36696 14.86336,11.87056 14.44552,12.92056 Z" id="Shape"></path>
                </g>
            </g>
        </g>
    </g>
</svg>