<?xml version="1.0" encoding="UTF-8"?>
<svg width="17px" height="14px" viewBox="0 0 17 14" version="1.1" xmlns="http://www.w3.org/2000/svg" xmlns:xlink="http://www.w3.org/1999/xlink">
    <title>Group 15</title>
    <g id="Page-1" stroke="none" stroke-width="1" fill="none" fill-rule="evenodd">
        <g id="Desktop-Copy" transform="translate(-166.000000, -2442.000000)" fill="#DAD9DE" fill-rule="nonzero">
            <g id="Footer" transform="translate(-1.000000, 2157.000000)">
                <g id="Group-15" transform="translate(167.000000, 285.000000)">
                    <path d="M14.55528,4.03856 C14.56544,4.18072 14.56544,4.32288 14.56544,4.46496 C14.56544,8.8 11.266,13.79488 5.23552,13.79488 C3.37768,13.79488 1.65176,13.2568 0.2,12.32288 C0.463968,12.35328 0.717752,12.36344 0.991872,12.36344 C2.52488,12.36344 3.936,11.84568 5.06296,10.9624 C3.62128,10.932 2.4132,9.98784 1.99696,8.68832 C2.2,8.71872 2.40304,8.73904 2.61624,8.73904 C2.91064,8.73904 3.20512,8.6984 3.4792,8.62744 C1.97664,8.3228 0.84972,7.00304 0.84972,5.40912 L0.84972,5.36856 C1.28624,5.61216 1.79392,5.76448 2.33192,5.78472 C1.44872,5.19592 0.870032,4.19088 0.870032,3.05376 C0.870032,2.44464 1.0324,1.88632 1.31672,1.39896 C2.93096,3.3888 5.35736,4.68832 8.07816,4.8304 C8.02736,4.5868 7.99688,4.33304 7.99688,4.0792 C7.99688,2.27208 9.45888,0.8 11.27608,0.8 C12.22024,0.8 13.07304,1.19592 13.672,1.83552 C14.41312,1.69344 15.12376,1.41928 15.75328,1.04368 C15.5096,1.80512 14.99184,2.44472 14.3116,2.85072 C14.97152,2.77968 15.61112,2.59696 16.19992,2.34312 C15.75328,2.99288 15.19488,3.57152 14.55528,4.03856 Z" id="Path"></path>
                </g>
            </g>
        </g>
    </g>
</svg>