<?xml version="1.0" encoding="UTF-8"?>
<svg width="17px" height="16px" viewBox="0 0 17 16" version="1.1" xmlns="http://www.w3.org/2000/svg" xmlns:xlink="http://www.w3.org/1999/xlink">
    <title>Group 13</title>
    <g id="Page-1" stroke="none" stroke-width="1" fill="none" fill-rule="evenodd">
        <g id="Desktop-Copy" transform="translate(-124.000000, -2441.000000)" fill="#DAD9DE" fill-rule="nonzero">
            <g id="Footer" transform="translate(-1.000000, 2157.000000)">
                <g id="Group-13" transform="translate(125.000000, 284.000000)">
                    <path d="M5.5516,12.76128 C5.5516,12.82584 5.47744,12.87744 5.38384,12.87744 C5.27744,12.88712 5.2032,12.83552 5.2032,12.76128 C5.2032,12.6968 5.27744,12.6452 5.37096,12.6452 C5.46776,12.63552 5.5516,12.68712 5.5516,12.76128 Z M4.5484,12.61616 C4.52584,12.68064 4.59032,12.7548 4.68712,12.77416 C4.77096,12.80648 4.86776,12.77416 4.88712,12.70968 C4.90648,12.6452 4.8452,12.57096 4.7484,12.54192 C4.66448,12.51936 4.57096,12.5516 4.5484,12.61616 Z M5.97416,12.56128 C5.88064,12.58384 5.81616,12.6452 5.82584,12.71936 C5.83552,12.78384 5.91936,12.82584 6.01616,12.8032 C6.10968,12.78064 6.17416,12.71936 6.16448,12.6548 C6.1548,12.59352 6.06776,12.5516 5.97416,12.56128 Z M8.0968,0.2 C3.62256,0.2 0.2,3.5968 0.2,8.07096 C0.2,11.6484 2.4516,14.70968 5.66776,15.78712 C6.08064,15.86128 6.22584,15.60648 6.22584,15.3968 C6.22584,15.1968 6.21616,14.09352 6.21616,13.41616 C6.21616,13.41616 3.95808,13.9 3.48384,12.4548 C3.48384,12.4548 3.11616,11.51616 2.58712,11.27416 C2.58712,11.27416 1.8484,10.76776 2.63872,10.77744 C2.63872,10.77744 3.44192,10.84192 3.88384,11.60968 C4.59032,12.8548 5.77416,12.4968 6.23552,12.28384 C6.30968,11.76776 6.51936,11.40968 6.7516,11.1968 C4.9484,10.9968 3.12904,10.73552 3.12904,7.63224 C3.12904,6.7452 3.37416,6.3 3.89032,5.73224 C3.80648,5.52256 3.53224,4.65808 3.97416,3.54192 C4.6484,3.33224 6.2,4.41288 6.2,4.41288 C6.8452,4.23224 7.53872,4.13872 8.22584,4.13872 C8.91288,4.13872 9.60648,4.23224 10.2516,4.41288 C10.2516,4.41288 11.8032,3.32904 12.47744,3.54192 C12.91936,4.66128 12.6452,5.52256 12.56128,5.73224 C13.07744,6.3032 13.39352,6.7484 13.39352,7.63224 C13.39352,10.7452 11.49352,10.99352 9.69032,11.1968 C9.98712,11.4516 10.23872,11.93552 10.23872,12.69352 C10.23872,13.78064 10.22904,15.12584 10.22904,15.39032 C10.22904,15.6 10.37744,15.8548 10.78712,15.78064 C14.01288,14.70968 16.2,11.6484 16.2,8.07096 C16.2,3.5968 12.57096,0.2 8.0968,0.2 Z M3.33552,11.32584 C3.29352,11.35808 3.3032,11.43224 3.35808,11.49352 C3.40968,11.5452 3.48384,11.56776 3.52584,11.52584 C3.56776,11.49352 3.55808,11.41936 3.5032,11.35808 C3.4516,11.30648 3.37744,11.28384 3.33552,11.32584 Z M2.98712,11.06448 C2.96448,11.10648 2.9968,11.15808 3.06128,11.19032 C3.11288,11.22256 3.17744,11.21288 3.2,11.16776 C3.22256,11.12584 3.19032,11.07416 3.12584,11.04192 C3.06128,11.02256 3.00968,11.03224 2.98712,11.06448 Z M4.03224,12.21288 C3.98064,12.2548 4,12.3516 4.07416,12.41288 C4.1484,12.48712 4.24192,12.4968 4.28384,12.4452 C4.32584,12.4032 4.30648,12.30648 4.24192,12.2452 C4.17096,12.17096 4.07416,12.16128 4.03224,12.21288 Z M3.66448,11.73872 C3.61288,11.77096 3.61288,11.8548 3.66448,11.92904 C3.71616,12.0032 3.8032,12.03552 3.8452,12.0032 C3.8968,11.96128 3.8968,11.87744 3.8452,11.8032 C3.8,11.72904 3.71616,11.6968 3.66448,11.73872 Z" id="Shape"></path>
                </g>
            </g>
        </g>
    </g>
</svg>