<?xml version="1.0" encoding="UTF-8"?>
<svg width="35px" height="32px" viewBox="0 0 35 32" version="1.1" xmlns="http://www.w3.org/2000/svg" xmlns:xlink="http://www.w3.org/1999/xlink">
    <title>tryo_color</title>
    <g id="Page-1" stroke="none" stroke-width="1" fill="none" fill-rule="evenodd">
        <g id="Mobile-Copy" transform="translate(-70.000000, -28.000000)" fill="#040738">
            <g id="tryo_color" transform="translate(70.000000, 28.000000)">
                <g id="Group-3" opacity="0.849675437" transform="translate(6.020000, 0.000000)" fill-rule="nonzero">
                    <g id="Group-4" transform="translate(0.000000, 2.660000)">
                        <path d="M8.87915834,0.675439265 L15.214767,9.91486854 C16.0018454,11.0626912 15.7094044,12.6312383 14.5615817,13.4183167 C14.1420117,13.7060219 13.6451872,13.86 13.1364503,13.86 L2.54354971,13.86 C1.15179212,13.86 0.0235497052,12.7317576 0.0235497052,11.34 C0.0235497052,10.8312631 0.17752784,10.3344386 0.465232998,9.91486854 L6.80084166,0.675439265 C7.19438084,0.101527955 7.9786544,-0.0446925444 8.55256573,0.348846641 C8.68062334,0.43665757 8.79134743,0.54738166 8.87915834,0.675439265 Z" id="Triangle"></path>
                    </g>
                    <g id="Group-4" transform="translate(2.800000, 0.000000)">
                        <path d="M9.49398635,0.794476127 L16.3255599,12.7497299 C17.0160651,13.9581138 16.5962413,15.4974676 15.3878573,16.1879727 C15.0070911,16.4055534 14.5761351,16.52 14.1375872,16.52 L2.66241279,16.52 C1.27065523,16.52 0.142412788,15.3917576 0.142412788,14 C0.142412788,13.5614521 0.256859389,13.1304961 0.474440072,12.7497299 L7.30601365,0.794476127 C7.6512662,0.190284144 8.42094308,-0.0196277312 9.02513506,0.325624832 C9.22047448,0.43724735 9.38236384,0.59913672 9.49398635,0.794476127 Z" id="Triangle"></path>
                    </g>
                    <g id="Group-4" transform="translate(7.140000, 2.660000)">
                        <path d="M8.87915834,0.675439265 L15.214767,9.91486854 C16.0018454,11.0626912 15.7094044,12.6312383 14.5615817,13.4183167 C14.1420117,13.7060219 13.6451872,13.86 13.1364503,13.86 L2.54354971,13.86 C1.15179212,13.86 0.0235497052,12.7317576 0.0235497052,11.34 C0.0235497052,10.8312631 0.17752784,10.3344386 0.465232998,9.91486854 L6.80084166,0.675439265 C7.19438084,0.101527955 7.9786544,-0.0446925444 8.55256573,0.348846641 C8.68062334,0.43665757 8.79134743,0.54738166 8.87915834,0.675439265 Z" id="Triangle"></path>
                    </g>
                </g>
                <g id="tryo" transform="translate(0.000000, 9.800000)" font-family="RoobertTWHINT-Bold, Roobert TWHINT" font-size="18.06" font-weight="bold">
                    <text>
                        <tspan x="0" y="18">tryo</tspan>
                    </text>
                </g>
            </g>
        </g>
    </g>
</svg>