<?xml version="1.0" encoding="UTF-8"?>
<svg width="124px" height="117px" viewBox="0 0 124 117" version="1.1" xmlns="http://www.w3.org/2000/svg" xmlns:xlink="http://www.w3.org/1999/xlink">
    <title>Group 8</title>
    <g id="Page-1" stroke="none" stroke-width="1" fill="none" fill-rule="evenodd">
        <g id="White" transform="translate(-652.000000, -769.000000)" fill="#FFFFFF">
            <g id="Group-8" transform="translate(652.000000, 769.000000)">
                <g id="Group-3" transform="translate(13.500000, 0.000000)" fill-opacity="0.95" opacity="0.849675437">
                    <g id="Group-4" transform="translate(0.000000, 10.500000)">
                        <path d="M39.7112798,5.41228309 L62.3384536,38.4102448 C65.1494478,42.5096113 64.1050156,48.1115655 60.0056491,50.9225597 C58.5071847,51.9500781 56.7328115,52.5 54.9158939,52.5 L17.0841061,52.5 C12.1135433,52.5 8.08410609,48.4705627 8.08410609,43.5 C8.08410609,41.6830824 8.634028,39.9087092 9.66154642,38.4102448 L32.2887202,5.41228309 C33.6942173,3.36259984 36.4951943,2.84038377 38.5448776,4.24588086 C39.0022262,4.55949132 39.3976694,4.9549345 39.7112798,5.41228309 Z" id="Triangle"></path>
                    </g>
                    <g id="Group-4" transform="translate(12.000000, 0.000000)">
                        <path d="M39.9070941,6.83741474 L64.3055712,49.5347496 C66.7716609,53.8504066 65.2722904,59.3480986 60.9566333,61.8141883 C59.5967541,62.5912621 58.0576253,63 56.4913829,63 L15.5086171,63 C10.5380544,63 6.5086171,58.9705627 6.5086171,54 C6.5086171,52.4337576 6.91735496,50.8946288 7.69442883,49.5347496 L32.0929059,6.83741474 C33.3259507,4.67958623 36.0747967,3.92990096 38.2326252,5.16294583 C38.930266,5.56159768 39.5084423,6.139774 39.9070941,6.83741474 Z" id="Triangle"></path>
                    </g>
                    <g id="Group-4" transform="translate(25.500000, 10.500000)">
                        <path d="M39.7112798,5.41228309 L62.3384536,38.4102448 C65.1494478,42.5096113 64.1050156,48.1115655 60.0056491,50.9225597 C58.5071847,51.9500781 56.7328115,52.5 54.9158939,52.5 L17.0841061,52.5 C12.1135433,52.5 8.08410609,48.4705627 8.08410609,43.5 C8.08410609,41.6830824 8.634028,39.9087092 9.66154642,38.4102448 L32.2887202,5.41228309 C33.6942173,3.36259984 36.4951943,2.84038377 38.5448776,4.24588086 C39.0022262,4.55949132 39.3976694,4.9549345 39.7112798,5.41228309 Z" id="Triangle"></path>
                    </g>
                </g>
                <text id="tryo" font-family="RoobertTWHINT-Bold, Roobert TWHINT" font-size="64.5" font-weight="bold">
                    <tspan x="0" y="103">tryo</tspan>
                </text>
            </g>
        </g>
    </g>
</svg>